<svg  xmlns="http://www.w3.org/2000/svg" xmlns:xlink="http://www.w3.org/1999/xlink" x="0px" y="0px"	 viewBox="0 0 472.59 59.46" style="enable-background:new 0 0 472.59 59.46;" xml:space="preserve">
                <g>
                    <g>
                        <path d="M12.25,33.95v24.07H0V1.69h30.24v10.3H12.25v11.74h17.99v10.22H12.25z"/>
                        <path d="M91.72,59.46c-17.06,0-30.41-12.5-30.41-29.73c0-17.06,13.18-29.39,30.07-29.39c17.06,0,30.24,12.08,30.24,29.39
                            C121.62,46.7,108.62,59.46,91.72,59.46z M91.63,10.98c-10.39,0-17.9,8.87-17.9,18.92c0,9.88,7.43,18.83,17.65,18.83
                            c10.22,0,17.82-9.21,17.82-19.09C109.2,19.84,101.77,10.98,91.63,10.98z"/>
                        <path d="M177.43,59.46c-6.25,0-13.76-2.37-17.74-7.43c-3.21-4.14-3.8-8.87-3.8-13.94V1.69h12.25v36.07c0,2.7,0.17,5.57,1.94,7.77
                            c1.69,2.11,4.9,3.21,7.52,3.21c6.08,0,9.55-4.47,9.55-10.3V1.69h12.24v35.39C199.39,50.67,191.2,59.46,177.43,59.46z"/>
                        <path d="M260.87,58.02l-12.41-24.41v24.41h-12.25V1.69h17.4c10.05,0,17.48,6,17.48,16.47c0,7.18-3.63,12.5-10.81,14.19
                            l14.61,25.68H260.87z M256.14,13.09c-1.52-1.01-3.29-1.1-5.07-1.1h-2.62v13.68h1.77c4.64,0,8.87-1.69,8.87-7.01
                            C259.1,16.47,258,14.27,256.14,13.09z"/>
                        <path d="M309.76,58.02V1.69h3.64v52.96h14.27v3.38H309.76z"/>
                        <path d="M401.65,58.02l-7.52-18.5h-23.98l-7.44,18.5h-4.14L382.31,0l23.4,58.02H401.65z M382.23,9.46L371.5,36.15h21.29
                            L382.23,9.46z"/>
                        <path d="M455.11,58.02h-15.37V1.69h12.25c9.37,0,15.54,5.15,15.54,14.78c0,5.4-2.03,8.78-6.59,11.65
                            c2.62,0.68,4.47,1.35,6.59,3.13c3.29,2.79,5.07,6.93,5.07,11.15C472.59,52.45,464.57,58.02,455.11,58.02z M459.92,7.43
                            c-2.62-2.11-6.08-2.36-9.38-2.36h-7.18v22.13h8.02c3.3,0,5.92-0.17,8.62-2.36c2.79-2.28,3.72-4.9,3.72-8.45
                            C463.72,13,462.62,9.63,459.92,7.43z M462.7,32.18c-3.04-1.43-7.18-1.6-10.56-1.6h-8.78v24.07h10.3c4.39,0,8.02-0.25,11.4-3.38
                            c2.53-2.28,3.8-5.49,3.8-8.87C468.87,38.09,466.76,34.04,462.7,32.18z"/>
                    </g>
                    <path d="M12.25,33.95v24.07H0V1.69h30.24v10.3H12.25v11.74h17.99v10.22H12.25z"/>
                    <path d="M91.72,59.46c-17.06,0-30.41-12.5-30.41-29.73c0-17.06,13.18-29.39,30.07-29.39c17.06,0,30.24,12.08,30.24,29.39
                        C121.62,46.7,108.62,59.46,91.72,59.46z M91.63,10.98c-10.39,0-17.9,8.87-17.9,18.92c0,9.88,7.43,18.83,17.65,18.83
                        c10.22,0,17.82-9.21,17.82-19.09C109.2,19.84,101.77,10.98,91.63,10.98z"/>
                    <path d="M177.43,59.46c-6.25,0-13.76-2.37-17.74-7.43c-3.21-4.14-3.8-8.87-3.8-13.94V1.69h12.25v36.07c0,2.7,0.17,5.57,1.94,7.77
                        c1.69,2.11,4.9,3.21,7.52,3.21c6.08,0,9.55-4.47,9.55-10.3V1.69h12.24v35.39C199.39,50.67,191.2,59.46,177.43,59.46z"/>
                    <path d="M260.87,58.02l-12.41-24.41v24.41h-12.25V1.69h17.4c10.05,0,17.48,5.99,17.48,16.47c0,7.18-3.63,12.5-10.81,14.19
                        l14.61,25.68H260.87z M256.14,13.09c-1.52-1.01-3.29-1.1-5.07-1.1h-2.62v13.68h1.77c4.64,0,8.87-1.69,8.87-7.01
                        C259.1,16.47,258,14.27,256.14,13.09z"/>
                    <path d="M309.76,58.02V1.69h3.64v52.96h14.27v3.38H309.76z"/>
                    <path d="M401.65,58.02l-7.52-18.5h-23.98l-7.44,18.5h-4.14L382.31,0l23.4,58.02H401.65z M382.23,9.46L371.5,36.15h21.29
                        L382.23,9.46z"/>
                    <path d="M455.11,58.02h-15.37V1.69h12.25c9.37,0,15.54,5.15,15.54,14.78c0,5.4-2.03,8.78-6.59,11.65c2.62,0.68,4.47,1.35,6.59,3.13
                        c3.29,2.79,5.07,6.93,5.07,11.15C472.59,52.45,464.57,58.02,455.11,58.02z M459.92,7.43c-2.62-2.11-6.08-2.36-9.38-2.36h-7.18
                        v22.13h8.02c3.3,0,5.92-0.17,8.62-2.37c2.79-2.28,3.72-4.9,3.72-8.44C463.72,13,462.62,9.62,459.92,7.43z M462.7,32.18
                        c-3.04-1.43-7.18-1.6-10.56-1.6h-8.78v24.07h10.3c4.39,0,8.02-0.25,11.4-3.38c2.53-2.28,3.8-5.49,3.8-8.87
                        C468.87,38.09,466.76,34.04,462.7,32.18z"/>
                </g>
                </svg>